<?xml version="1.0" encoding="UTF-8" standalone="no"?>
<!-- Created with Inkscape (http://www.inkscape.org/) -->

<svg
   xmlns:dc="http://purl.org/dc/elements/1.1/"
   xmlns:cc="http://creativecommons.org/ns#"
   xmlns:rdf="http://www.w3.org/1999/02/22-rdf-syntax-ns#"
   xmlns:svg="http://www.w3.org/2000/svg"
   xmlns="http://www.w3.org/2000/svg"
   xmlns:sodipodi="http://sodipodi.sourceforge.net/DTD/sodipodi-0.dtd"
   xmlns:inkscape="http://www.inkscape.org/namespaces/inkscape"
   width="188.15775mm"
   height="35.931332mm"
   viewBox="0 0 188.15775 35.931332"
   version="1.1"
   id="svg1406"
   inkscape:version="0.92.4 (5da689c313, 2019-01-14)"
   sodipodi:docname="logo.svg">
  <defs
     id="defs1400" />
  <sodipodi:namedview
     id="base"
     pagecolor="#ffffff"
     bordercolor="#666666"
     borderopacity="1.0"
     inkscape:pageopacity="0.0"
     inkscape:pageshadow="2"
     inkscape:zoom="1.4"
     inkscape:cx="406.69024"
     inkscape:cy="15.372851"
     inkscape:document-units="mm"
     inkscape:current-layer="layer1"
     showgrid="false"
     inkscape:window-width="1366"
     inkscape:window-height="745"
     inkscape:window-x="-8"
     inkscape:window-y="-8"
     inkscape:window-maximized="1" />
  <metadata
     id="metadata1403">
    <rdf:RDF>
      <cc:Work
         rdf:about="">
        <dc:format>image/svg+xml</dc:format>
        <dc:type
           rdf:resource="http://purl.org/dc/dcmitype/StillImage" />
        <dc:title></dc:title>
      </cc:Work>
    </rdf:RDF>
  </metadata>
  <g
     inkscape:label="Calque 1"
     inkscape:groupmode="layer"
     id="layer1"
     transform="translate(77.447922,-99.117666)">
    <path
       d="m 39.09696,129.36098 c 0,0.254 0.2032,0.4826 0.4826,0.4826 h 9.5504 c 0.2794,0 0.4826,-0.2286 0.4826,-0.4826 v -2.7686 c 0,-0.254 -0.2032,-0.4826 -0.4826,-0.4826 h -6.0452 v -13.5636 c 0,-0.254 -0.2286,-0.4826 -0.4826,-0.4826 h -3.0226 c -0.2794,0 -0.4826,0.2286 -0.4826,0.4826 z"
       style="font-style:normal;font-variant:normal;font-weight:500;font-stretch:normal;font-size:96px;line-height:1.25;font-family:'Brandon Grotesque';-inkscape-font-specification:'Brandon Grotesque weight=423';letter-spacing:0px;word-spacing:0px;fill:#ffcc70;fill-opacity:1;stroke:none;stroke-width:0.86500001;stroke-linecap:round;stroke-linejoin:round;stroke-miterlimit:4;stroke-dasharray:none;stroke-opacity:1;paint-order:normal"
       id="path953"
       inkscape:connector-curvature="0" />
    <path
       d="m 50.69999,120.97898 c 0,5.08 4.0386,9.1186 9.1186,9.1186 5.08,0 9.144,-4.0386 9.144,-9.1186 0,-5.08 -4.064,-9.1694 -9.144,-9.1694 -5.08,0 -9.1186,4.0894 -9.1186,9.1694 z m 4.064,0 c 0,-2.794 2.286,-5.1054 5.0546,-5.1054 2.794,0 5.08,2.3114 5.08,5.1054 0,2.7686 -2.286,5.0546 -5.08,5.0546 -2.7686,0 -5.0546,-2.286 -5.0546,-5.0546 z"
       style="font-style:normal;font-variant:normal;font-weight:500;font-stretch:normal;font-size:96px;line-height:1.25;font-family:'Brandon Grotesque';-inkscape-font-specification:'Brandon Grotesque weight=423';letter-spacing:0px;word-spacing:0px;fill:#ffcc70;fill-opacity:1;stroke:none;stroke-width:0.86500001;stroke-linecap:round;stroke-linejoin:round;stroke-miterlimit:4;stroke-dasharray:none;stroke-opacity:1;paint-order:normal"
       id="path955"
       inkscape:connector-curvature="0" />
    <path
       d="m 70.74218,120.97898 c 0,5.08 4.0894,9.1186 9.1694,9.1186 2.2606,0 4.445,-0.7874 6.1722,-2.4638 0.1778,-0.1778 0.2032,-0.508 0.0254,-0.6858 l -1.9812,-2.1082 c -0.1524,-0.1778 -0.4826,-0.1778 -0.6604,-0.0254 -0.9144,0.7874 -2.2098,1.2192 -3.4036,1.2192 -2.8702,0 -5.0038,-2.3368 -5.0038,-5.1562 0,-2.8448 2.1082,-5.2324 4.9784,-5.2324 1.2446,0 2.4892,0.4572 3.429,1.2954 0.1778,0.1778 0.4572,0.1778 0.635,0 l 1.9812,-2.0574 c 0.2032,-0.2032 0.2032,-0.508 -0.0254,-0.7112 -1.7272,-1.5748 -3.6068,-2.3622 -6.1468,-2.3622 -5.08,0 -9.1694,4.0894 -9.1694,9.1694 z"
       style="font-style:normal;font-variant:normal;font-weight:500;font-stretch:normal;font-size:96px;line-height:1.25;font-family:'Brandon Grotesque';-inkscape-font-specification:'Brandon Grotesque weight=423';letter-spacing:0px;word-spacing:0px;fill:#ffcc70;fill-opacity:1;stroke:none;stroke-width:0.86500001;stroke-linecap:round;stroke-linejoin:round;stroke-miterlimit:4;stroke-dasharray:none;stroke-opacity:1;paint-order:normal"
       id="path957"
       inkscape:connector-curvature="0" />
    <path
       d="m 89.15282,129.23398 c 0,0.3302 0.254,0.6096 0.6096,0.6096 h 2.9718 c 0.3302,0 0.6096,-0.2794 0.6096,-0.6096 v -7.5692 l 5.8674,7.9756 c 0.0508,0.0762 0.2794,0.1778 0.4572,0.1778 h 3.5052 c 0.4826,0 0.762,-0.5588 0.4826,-0.9398 l -6.477,-8.4328 5.9436,-7.4422 c 0.2794,-0.381 0.0254,-0.9398 -0.4572,-0.9398 h -3.2004 c -0.1524,0 -0.381,0.127 -0.4826,0.254 l -5.6388,7.0358 v -6.6802 c 0,-0.3302 -0.2794,-0.6096 -0.6096,-0.6096 h -2.9718 c -0.3556,0 -0.6096,0.2794 -0.6096,0.6096 z"
       style="font-style:normal;font-variant:normal;font-weight:500;font-stretch:normal;font-size:96px;line-height:1.25;font-family:'Brandon Grotesque';-inkscape-font-specification:'Brandon Grotesque weight=423';letter-spacing:0px;word-spacing:0px;fill:#ffcc70;fill-opacity:1;stroke:none;stroke-width:0.86500001;stroke-linecap:round;stroke-linejoin:round;stroke-miterlimit:4;stroke-dasharray:none;stroke-opacity:1;paint-order:normal"
       id="path959"
       inkscape:connector-curvature="0" />
    <g
       transform="translate(-28.804864,-20.298154)"
       id="g1209"
       style="fill:#ff8f3f;fill-opacity:1">
      <path
         inkscape:connector-curvature="0"
         id="path949"
         style="font-style:normal;font-variant:normal;font-weight:500;font-stretch:normal;font-size:96px;line-height:1.25;font-family:'Brandon Grotesque';-inkscape-font-specification:'Brandon Grotesque weight=423';letter-spacing:0px;word-spacing:0px;fill:#ff8f3f;fill-opacity:1;stroke:none;stroke-width:0.86500001;stroke-linecap:round;stroke-linejoin:round;stroke-miterlimit:4;stroke-dasharray:none;stroke-opacity:1;paint-order:normal"
         d="m 49.720927,125.6525 1.349396,0.36157 c 0.171743,0.046 0.43857,-0.0666 0.540231,-0.24969 l 2.222924,-3.58543 c 0.190174,-0.31719 0.04168,-0.64623 -0.277271,-0.7317 l -2.527056,-0.67712 c -0.245343,-0.0657 -0.52532,0.0959 -0.591061,0.34125 l -1.058415,3.95006 c -0.06574,0.24534 0.09591,0.52532 0.341252,0.59106 z" />
      <path
         d="m 42.215907,125.6525 -1.349397,0.36157 c -0.171743,0.046 -0.43857,-0.0666 -0.540231,-0.24969 l -2.222923,-3.58543 c -0.190175,-0.31719 -0.04168,-0.64623 0.27727,-0.7317 l 2.527056,-0.67712 c 0.245343,-0.0657 0.52532,0.0959 0.591061,0.34125 l 1.058415,3.95006 c 0.06574,0.24534 -0.09591,0.52532 -0.341251,0.59106 z"
         style="font-style:normal;font-variant:normal;font-weight:500;font-stretch:normal;font-size:96px;line-height:1.25;font-family:'Brandon Grotesque';-inkscape-font-specification:'Brandon Grotesque weight=423';letter-spacing:0px;word-spacing:0px;fill:#ff8f3f;fill-opacity:1;stroke:none;stroke-width:0.86500001;stroke-linecap:round;stroke-linejoin:round;stroke-miterlimit:4;stroke-dasharray:none;stroke-opacity:1;paint-order:normal"
         id="path976"
         inkscape:connector-curvature="0" />
      <path
         style="font-style:normal;font-variant:normal;font-weight:500;font-stretch:normal;font-size:96px;line-height:1.25;font-family:'Brandon Grotesque';-inkscape-font-specification:'Brandon Grotesque weight=423';letter-spacing:0px;word-spacing:0px;fill:#ff8f3f;fill-opacity:1;stroke:none;stroke-width:0.86500001;stroke-linecap:round;stroke-linejoin:round;stroke-miterlimit:4;stroke-dasharray:none;stroke-opacity:1;paint-order:normal"
         d="m 44.020455,119.41582 c -0.3302,0 -0.558938,0.2795 -0.457338,0.6351 l 1.219565,4.03851 c 0.0508,0.2032 0.279019,0.38137 0.456819,0.38137 h 0.06098 1.336352 0.06046 c 0.1778,0 0.406538,-0.17817 0.457338,-0.38137 l 1.219046,-4.03851 c 0.1016,-0.3556 -0.126619,-0.6351 -0.456819,-0.6351 H 46.636832 45.30048 Z"
         id="path978"
         inkscape:connector-curvature="0" />
    </g>
    <g
       id="g1274"
       transform="translate(-28.804864,-19.541614)"
       style="fill:#ff710d;fill-opacity:1">
      <path
         d="m -38.727379,150.14173 h 2.794 c 0.508,0 0.7874,-0.3048 0.9144,-0.6096 l 0.9144,-2.032 h 6.908801 l 0.9144,2.0066 c 0.2286,0.4826 0.4318,0.635 0.889,0.635 h 2.819399 c 0.381,0 0.5842,-1.02709 0.4318,-1.35729 l -7.9502,-16.39731 c -0.0762,-0.1524 -0.254,-0.2794 -0.4318,-0.2794 h -0.254 c -0.1778,0 -0.3556,0.127 -0.4318,0.2794 l -7.955435,16.39566 c -0.1524,0.3302 0.05603,1.35894 0.437035,1.35894 z m 6.1468,-6.096 1.905,-4.191 h 0.0254 l 1.930401,4.191 z"
         style="font-style:normal;font-variant:normal;font-weight:500;font-stretch:normal;font-size:96px;line-height:1.25;font-family:'Brandon Grotesque';-inkscape-font-specification:'Brandon Grotesque weight=423';letter-spacing:0px;word-spacing:0px;fill:#ff710d;fill-opacity:1;stroke:none;stroke-width:0.86500001;stroke-linecap:round;stroke-linejoin:round;stroke-miterlimit:4;stroke-dasharray:none;stroke-opacity:1;paint-order:normal"
         id="path1266"
         inkscape:connector-curvature="0"
         sodipodi:nodetypes="ssccccssccssccsccccc" />
      <path
         d="m -20.0556,149.65913 c 0,0.254 0.2032,0.4826 0.4826,0.4826 h 2.9972 c 0.254,0 0.4826,-0.2286 0.4826,-0.4826 v -5.969 h 2.667 c 3.098799,0 5.6641994,-2.5654 5.6641994,-5.715 0,-3.0734 -2.5654004,-5.6134 -5.6895994,-5.6134 h -6.1214 c -0.2794,0 -0.4826,0.2286 -0.4826,0.4826 z m 3.9624,-9.6774 v -3.8862 h 2.413 c 1.092199,0 2.006599,0.8128 2.006599,1.8796 0,1.143 -0.9144,2.0066 -2.006599,2.0066 z"
         style="font-style:normal;font-variant:normal;font-weight:500;font-stretch:normal;font-size:96px;line-height:1.25;font-family:'Brandon Grotesque';-inkscape-font-specification:'Brandon Grotesque weight=423';letter-spacing:0px;word-spacing:0px;fill:#ff710d;fill-opacity:1;stroke:none;stroke-width:0.86500001;stroke-linecap:round;stroke-linejoin:round;stroke-miterlimit:4;stroke-dasharray:none;stroke-opacity:1;paint-order:normal"
         id="path1268"
         inkscape:connector-curvature="0" />
      <path
         d="m -5.1727881,149.65913 c 0,0.254 0.2032,0.4826 0.4826,0.4826 H 5.8254118 c 0.2794,0 0.4826,-0.2286 0.4826,-0.4826 v -2.7686 c 0,-0.254 -0.2032,-0.4826 -0.4826,-0.4826 h -7.0357999 v -3.429 h 5.7911999 c 0.254,0 0.4826,-0.2032 0.4826,-0.4826 v -2.7686 c 0,-0.254 -0.2286,-0.4826 -0.4826,-0.4826 h -5.7911999 v -3.1496 h 7.0357999 c 0.2794,0 0.4826,-0.2286 0.4826,-0.4826 v -2.7686 c 0,-0.254 -0.2032,-0.4826 -0.4826,-0.4826 H -4.6901881 c -0.2794,0 -0.4826,0.2286 -0.4826,0.4826 z"
         style="font-style:normal;font-variant:normal;font-weight:500;font-stretch:normal;font-size:96px;line-height:1.25;font-family:'Brandon Grotesque';-inkscape-font-specification:'Brandon Grotesque weight=423';letter-spacing:0px;word-spacing:0px;fill:#ff710d;fill-opacity:1;stroke:none;stroke-width:0.86500001;stroke-linecap:round;stroke-linejoin:round;stroke-miterlimit:4;stroke-dasharray:none;stroke-opacity:1;paint-order:normal"
         id="path1270"
         inkscape:connector-curvature="0" />
      <path
         d="m 9.7100242,149.65913 c 0,0.254 0.2032,0.4826 0.4825998,0.4826 h 3.0226 c 0.254,0 0.4826,-0.2286 0.4826,-0.4826 v -6.477 h 1.7526 l 3.3782,6.731 c 0.0508,0.1016 0.2032,0.2286 0.4064,0.2286 h 3.3782 c 0.4318,0 0.6096,-1.1581 0.4318,-1.4883 l -3.4798,-5.6999 c 2.2098,-0.889 3.7592,-2.7686 3.7592,-5.1054 0,-3.0226 -2.4892,-5.4864 -5.5372,-5.4864 h -7.5946 c -0.2793998,0 -0.4825998,0.2286 -0.4825998,0.4826 z m 3.9877998,-9.7028 v -3.9624 h 3.7592 c 1.0414,0 1.9304,0.8636 1.9304,1.9304 0,1.0668 -0.889,2.032 -1.9304,2.032 z"
         style="font-style:normal;font-variant:normal;font-weight:500;font-stretch:normal;font-size:96px;line-height:1.25;font-family:'Brandon Grotesque';-inkscape-font-specification:'Brandon Grotesque weight=423';letter-spacing:0px;word-spacing:0px;fill:#ff710d;fill-opacity:1;stroke:none;stroke-width:0.86500001;stroke-linecap:round;stroke-linejoin:round;stroke-miterlimit:4;stroke-dasharray:none;stroke-opacity:1;paint-order:normal"
         id="path1272"
         inkscape:connector-curvature="0"
         sodipodi:nodetypes="sssscccssccsssssccsssc" />
    </g>
    <rect
       style="fill:none;fill-opacity:1;stroke:none;stroke-width:0.86500001;stroke-linecap:round;stroke-linejoin:round;stroke-miterlimit:4;stroke-dasharray:none;stroke-opacity:1;paint-order:normal"
       id="rect1484"
       width="188.15775"
       height="23.786989"
       x="-77.447922"
       y="111.26201" />
    <path
       id="path1276"
       d="m 59.81867,112.56609 c -5.08,0 -9.11883,4.08947 -9.11883,9.16947 0,5.08 4.03883,9.11882 9.11883,9.11882 5.08,0 9.14414,-4.03882 9.14414,-9.11882 0,-5.08 -4.06414,-9.16947 -9.14414,-9.16947 z m 20.09283,0 c -5.08,0 -9.16947,4.08947 -9.16947,9.16947 0,5.08 4.08947,9.11882 9.16947,9.11882 2.2606,0 4.44503,-0.78753 6.17223,-2.46393 0.1778,-0.1778 0.25037,-1.12216 0.0726,-1.29996 l -2.02852,-1.49419 c -0.1524,-0.1778 -0.48262,-0.17772 -0.66042,-0.0253 -0.9144,0.7874 -2.20961,1.21905 -3.40341,1.21905 -2.8702,0 -5.00383,-2.33688 -5.00383,-5.15628 0,-2.8448 2.1083,-5.23224 4.9785,-5.23224 1.2446,0 2.48894,0.45733 3.42874,1.29553 0.1778,0.1778 0.4573,0.1778 0.6351,0 l 1.98127,-2.05775 c 0.2032,-0.2032 0.29777,-1.07483 0.0692,-1.27803 -1.7272,-1.5748 -3.7014,-1.79517 -6.2414,-1.79517 z m -40.33191,0.25425 c -0.2794,0 -0.48266,0.22814 -0.48266,0.48214 v 16.81499 c 0,0.254 0.20326,0.48266 0.48266,0.48266 h 9.55032 c 0.2794,0 0.48266,-0.22866 0.48266,-0.48266 v -2.7683 c 0,-0.254 -0.20326,-0.48266 -0.48266,-0.48266 H 43.0848 v -13.56403 c 0,-0.254 -0.22865,-0.48214 -0.48265,-0.48214 z m 50.18299,0 c -0.3556,0 -0.60978,0.27906 -0.60978,0.60926 v 16.56075 c 0,0.3302 0.25418,0.60978 0.60978,0.60978 h 2.97139 c 0.3302,0 0.60978,-0.27958 0.60978,-0.60978 v -7.56905 l 5.86735,7.97574 c 0.0508,0.0762 0.27953,0.17777 0.45733,0.17777 h 3.50522 c 0.4826,0 0.76205,-1.31494 0.48265,-1.69594 l -6.47712,-7.67662 5.94382,-7.44243 c 0.2794,-0.381 0.18161,-1.69401 -0.29197,-1.60094 l -3.36569,0.66146 c -0.14954,0.0294 -0.38105,0.12673 -0.48265,0.25373 l -5.63894,7.03575 v -6.68022 c 0,-0.3302 -0.27958,-0.60926 -0.60978,-0.60926 z m -29.94391,3.80958 c 2.794,0 5.07979,2.31164 5.07979,5.10564 0,2.7686 -2.28579,5.05447 -5.07979,5.05447 -2.7686,0 -5.05448,-2.28587 -5.05448,-5.05447 0,-2.794 2.28588,-5.10564 5.05448,-5.10564 z"
       style="font-style:normal;font-variant:normal;font-weight:500;font-stretch:normal;font-size:96px;line-height:1.25;font-family:'Brandon Grotesque';-inkscape-font-specification:'Brandon Grotesque weight=423';letter-spacing:0px;word-spacing:0px;fill:#ff710d;fill-opacity:1;stroke:none;stroke-width:0.86500001;stroke-linecap:round;stroke-linejoin:round;stroke-miterlimit:4;stroke-dasharray:none;stroke-opacity:1;paint-order:normal"
       inkscape:connector-curvature="0"
       sodipodi:nodetypes="ssssscssccccsssccccccsssssssscsssssssssccsscccssccssssssss" />
    <g
       transform="translate(-28.804864,-20.298154)"
       id="g1204">
      <path
         inkscape:connector-curvature="0"
         id="path939"
         style="font-style:normal;font-variant:normal;font-weight:500;font-stretch:normal;font-size:96px;line-height:1.25;font-family:'Brandon Grotesque';-inkscape-font-specification:'Brandon Grotesque weight=423';letter-spacing:0px;word-spacing:0px;fill:#ffcc70;fill-opacity:1;stroke:none;stroke-width:0.86500001;stroke-linecap:round;stroke-linejoin:round;stroke-miterlimit:4;stroke-dasharray:none;stroke-opacity:1;paint-order:normal"
         d="m -38.727379,150.14173 h 2.794 c 0.508,0 0.7874,-0.3048 0.9144,-0.6096 l 0.9144,-2.032 h 6.908801 l 0.9144,2.0066 c 0.2286,0.4826 0.4318,0.635 0.889,0.635 h 2.819399 c 0.381,0 0.5842,-0.3302 0.4318,-0.6604 l -7.9502,-17.0942 c -0.0762,-0.1524 -0.254,-0.2794 -0.4318,-0.2794 h -0.254 c -0.1778,0 -0.3556,0.127 -0.4318,0.2794 l -7.9502,17.0942 c -0.1524,0.3302 0.0508,0.6604 0.4318,0.6604 z m 6.1468,-6.096 1.905,-4.191 h 0.0254 l 1.930401,4.191 z" />
      <path
         inkscape:connector-curvature="0"
         id="path941"
         style="font-style:normal;font-variant:normal;font-weight:500;font-stretch:normal;font-size:96px;line-height:1.25;font-family:'Brandon Grotesque';-inkscape-font-specification:'Brandon Grotesque weight=423';letter-spacing:0px;word-spacing:0px;fill:#ffcc70;fill-opacity:1;stroke:none;stroke-width:0.86500001;stroke-linecap:round;stroke-linejoin:round;stroke-miterlimit:4;stroke-dasharray:none;stroke-opacity:1;paint-order:normal"
         d="m -20.0556,149.65913 c 0,0.254 0.2032,0.4826 0.4826,0.4826 h 2.9972 c 0.254,0 0.4826,-0.2286 0.4826,-0.4826 v -5.969 h 2.667 c 3.098799,0 5.6641994,-2.5654 5.6641994,-5.715 0,-3.0734 -2.5654004,-5.6134 -5.6895994,-5.6134 h -6.1214 c -0.2794,0 -0.4826,0.2286 -0.4826,0.4826 z m 3.9624,-9.6774 v -3.8862 h 2.413 c 1.092199,0 2.006599,0.8128 2.006599,1.8796 0,1.143 -0.9144,2.0066 -2.006599,2.0066 z" />
      <path
         inkscape:connector-curvature="0"
         id="path943"
         style="font-style:normal;font-variant:normal;font-weight:500;font-stretch:normal;font-size:96px;line-height:1.25;font-family:'Brandon Grotesque';-inkscape-font-specification:'Brandon Grotesque weight=423';letter-spacing:0px;word-spacing:0px;fill:#ffcc70;fill-opacity:1;stroke:none;stroke-width:0.86500001;stroke-linecap:round;stroke-linejoin:round;stroke-miterlimit:4;stroke-dasharray:none;stroke-opacity:1;paint-order:normal"
         d="m -5.1727881,149.65913 c 0,0.254 0.2032,0.4826 0.4826,0.4826 H 5.8254118 c 0.2794,0 0.4826,-0.2286 0.4826,-0.4826 v -2.7686 c 0,-0.254 -0.2032,-0.4826 -0.4826,-0.4826 h -7.0357999 v -3.429 h 5.7911999 c 0.254,0 0.4826,-0.2032 0.4826,-0.4826 v -2.7686 c 0,-0.254 -0.2286,-0.4826 -0.4826,-0.4826 h -5.7911999 v -3.1496 h 7.0357999 c 0.2794,0 0.4826,-0.2286 0.4826,-0.4826 v -2.7686 c 0,-0.254 -0.2032,-0.4826 -0.4826,-0.4826 H -4.6901881 c -0.2794,0 -0.4826,0.2286 -0.4826,0.4826 z" />
      <path
         inkscape:connector-curvature="0"
         id="path945"
         style="font-style:normal;font-variant:normal;font-weight:500;font-stretch:normal;font-size:96px;line-height:1.25;font-family:'Brandon Grotesque';-inkscape-font-specification:'Brandon Grotesque weight=423';letter-spacing:0px;word-spacing:0px;fill:#ffcc70;fill-opacity:1;stroke:none;stroke-width:0.86500001;stroke-linecap:round;stroke-linejoin:round;stroke-miterlimit:4;stroke-dasharray:none;stroke-opacity:1;paint-order:normal"
         d="m 9.7100242,149.65913 c 0,0.254 0.2032,0.4826 0.4825998,0.4826 h 3.0226 c 0.254,0 0.4826,-0.2286 0.4826,-0.4826 v -6.477 h 1.7526 l 3.3782,6.731 c 0.0508,0.1016 0.2032,0.2286 0.4064,0.2286 h 3.3782 c 0.4318,0 0.6096,-0.4064 0.4318,-0.7366 l -3.4798,-6.4516 c 2.2098,-0.889 3.7592,-2.7686 3.7592,-5.1054 0,-3.0226 -2.4892,-5.4864 -5.5372,-5.4864 h -7.5946 c -0.2793998,0 -0.4825998,0.2286 -0.4825998,0.4826 z m 3.9877998,-9.7028 v -3.9624 h 3.7592 c 1.0414,0 1.9304,0.8636 1.9304,1.9304 0,1.0668 -0.889,2.032 -1.9304,2.032 z" />
    </g>
    <g
       id="g1282"
       transform="matrix(0.99539028,0.09590718,-0.0982615,1.019825,-14.950056,-25.478214)">
      <g
         id="g1162">
        <path
           d="m 25.733373,136.36841 c -1.681654,6.27602 0.88242,12.31072 5.789322,13.62552 4.906904,1.3148 10.169342,-2.62279 11.850994,-8.89881 1.681654,-6.27601 -0.890138,-12.38005 -5.797039,-13.69485 -4.906905,-1.3148 -10.161625,2.69213 -11.843277,8.96814 z m 3.925523,1.05184 c 0.924909,-3.45181 3.898167,-5.71573 6.572429,-4.99917 2.698798,0.72314 4.141751,4.17039 3.216842,7.6222 -0.916501,3.42043 -3.881351,5.65298 -6.580148,4.92984 -2.674263,-0.71657 -4.125624,-4.13244 -3.209123,-7.55287 z"
           style="font-style:normal;font-variant:normal;font-weight:500;font-stretch:normal;font-size:96px;line-height:1.25;font-family:'Brandon Grotesque';-inkscape-font-specification:'Brandon Grotesque weight=423';letter-spacing:0px;word-spacing:0px;fill:#ffcc70;fill-opacity:1;stroke:none;stroke-width:0.97826028;stroke-linecap:round;stroke-linejoin:round;stroke-miterlimit:4;stroke-dasharray:none;stroke-opacity:1;paint-order:normal"
           id="path947"
           inkscape:connector-curvature="0" />
        <path
           sodipodi:nodetypes="cssscccscscc"
           inkscape:connector-curvature="0"
           style="font-style:normal;font-variant:normal;font-weight:500;font-stretch:normal;font-size:96px;line-height:1.25;font-family:'Brandon Grotesque';-inkscape-font-specification:'Brandon Grotesque weight=423';letter-spacing:0px;word-spacing:0px;fill:#ff710d;fill-opacity:1;stroke:none;stroke-width:3.69736171;stroke-linecap:round;stroke-linejoin:round;stroke-miterlimit:4;stroke-dasharray:none;stroke-opacity:1;paint-order:normal"
           d="m 98.61523,511.68946 c 0,0 0.125575,-1.80857 -1.355464,3.71874 -6.355858,23.72039 3.335084,46.52873 21.880854,51.49805 18.54578,4.96932 38.43517,-9.91242 44.79102,-33.63281 3.1762,-11.85372 2.33691,-23.54522 -1.61133,-32.89649 h -25.86328 c 0.16007,0.0372 0.32093,0.0686 0.48047,0.11133 10.20018,2.73313 15.65392,15.76238 12.1582,28.8086 -3.46394,12.9276 -14.67091,21.36594 -24.87109,18.63281 -10.10745,-2.7083 -15.59285,-15.61927 -12.12891,-28.54688 2.66822,-9.95794 9.84806,-17.29209 17.5918,-19.00586 z"
           id="path1156"
           transform="scale(0.26458333)" />
      </g>
      <path
         inkscape:connector-curvature="0"
         id="path1181"
         d="m 41.698746,130.22822 c -0.313794,0.14306 -2.786484,1.23726 -6.599079,2.06758 0.04,-0.001 0.07988,-0.007 0.119888,-0.007 v -5.2e-4 c 0.296145,-6e-5 0.591743,0.0348 0.8847,0.10284 0,0 5.16e-4,0 5.16e-4,0 0.04227,0.01 0.08448,0.0182 0.126609,0.0295 0.08434,0.0226 0.167746,0.0476 0.249597,0.0754 0.1637,0.0557 0.322075,0.12178 0.475422,0.19741 0.230021,0.11344 0.448511,0.24847 0.653709,0.40307 0.0684,0.0515 0.134998,0.10545 0.200504,0.16123 0.0655,0.0558 0.129693,0.11379 0.192235,0.17364 0.06245,0.0598 0.123505,0.12133 0.182936,0.185 0,0 0,5.2e-4 0,5.2e-4 0.05942,0.0637 0.117816,0.12895 0.174148,0.19637 0.0565,0.0676 0.111004,0.13707 0.164331,0.20825 0.05325,0.0711 0.105013,0.14359 0.155029,0.21808 0,0 0,5.1e-4 0,5.1e-4 0.04031,0.0601 0.07905,0.12184 0.117306,0.18397 1.82522,-0.41179 3.409463,-0.85859 4.445206,-1.24798 -0.36885,-1.09775 -0.88928,-2.09417 -1.543057,-2.94815 z m -7.98866,2.3456 c -0.627076,0.11401 -1.278372,0.21917 -1.95802,0.30851 -5.962277,0.78371 -5.66012,2.50217 -5.66012,2.50217 1.026316,0.31483 2.537754,0.38364 4.257106,0.29455 5.4e-4,-10e-4 0.001,-0.002 0.0015,-0.003 0.01283,-0.0239 0.02416,-0.0491 0.03721,-0.0729 0.09149,-0.16644 0.189064,-0.32738 0.290423,-0.48369 0.02609,-0.0402 0.05341,-0.0789 0.0801,-0.11834 0.07799,-0.11546 0.158829,-0.2276 0.241845,-0.33693 0.03651,-0.048 0.07316,-0.0958 0.110588,-0.14263 0.08273,-0.10354 0.16778,-0.20338 0.254765,-0.30076 0.03266,-0.0365 0.06393,-0.075 0.09715,-0.11058 0.115914,-0.12441 0.235768,-0.24288 0.358119,-0.35605 0.04423,-0.0409 0.08987,-0.0785 0.134874,-0.11782 0.0843,-0.0738 0.169476,-0.14563 0.256315,-0.21394 0.05442,-0.0428 0.109503,-0.0845 0.164849,-0.12506 0.081,-0.0594 0.163147,-0.11544 0.24598,-0.17002 0.06601,-0.0435 0.131371,-0.0889 0.198438,-0.12919 0.236791,-0.14233 0.47966,-0.26472 0.727085,-0.36587 0.0044,-0.002 0.009,-0.003 0.01344,-0.005 0.04908,-0.0199 0.09893,-0.035 0.14831,-0.0532 z"
         style="font-style:normal;font-variant:normal;font-weight:500;font-stretch:normal;font-size:96px;line-height:1.25;font-family:'Brandon Grotesque';-inkscape-font-specification:'Brandon Grotesque weight=423';letter-spacing:0px;word-spacing:0px;fill:#ff8f3f;fill-opacity:1;stroke:none;stroke-width:0.97826028;stroke-linecap:round;stroke-linejoin:round;stroke-miterlimit:4;stroke-dasharray:none;stroke-opacity:1;paint-order:normal" />
    </g>
    <g
       id="g1289"
       transform="matrix(0.9771997,0,0,1.0211073,-27.481458,-22.021424)">
      <path
         inkscape:connector-curvature="0"
         id="path951"
         style="font-style:normal;font-variant:normal;font-weight:500;font-stretch:normal;font-size:96px;line-height:1.25;font-family:'Brandon Grotesque';-inkscape-font-specification:'Brandon Grotesque weight=423';letter-spacing:0px;word-spacing:0px;fill:#ffcc70;fill-opacity:1;stroke:none;stroke-width:0.97826028;stroke-linecap:round;stroke-linejoin:round;stroke-miterlimit:4;stroke-dasharray:none;stroke-opacity:1;paint-order:normal"
         d="m 49.763517,140.73645 c 1.681651,6.27601 6.968624,10.20703 11.875526,8.89223 2.183572,-0.58509 4.032885,-2.12323 5.146286,-4.64135 0.112884,-0.26568 0.02811,-0.68019 -0.202488,-0.85384 l -2.611578,-2.09177 c -0.206065,-0.18022 -0.525015,-0.0948 -0.646308,0.13954 -0.622586,1.20945 -1.730904,2.07819 -2.884027,2.38716 -2.7724,0.74287 -5.60686,-1.59188 -6.540177,-5.07507 -0.941727,-3.51457 0.30426,-7.00994 3.076662,-7.75281 1.20219,-0.32212 2.555729,-0.0794 3.740981,0.7129 0.2306,0.17364 0.500477,0.10132 0.613362,-0.16435 l 1.232622,-3.05456 c 0.129011,-0.30364 0.02811,-0.6802 -0.259966,-0.87207 -2.18966,-1.49853 -4.265869,-1.98484 -6.719321,-1.32744 -4.906902,1.3148 -7.503229,7.42541 -5.821574,13.70143 z" />
      <path
         id="path1192"
         transform="scale(0.26458333)"
         d="m 187.89844,504.30664 c -2.30609,8.29931 -2.41787,17.90255 0.18359,27.61133 6.35585,23.72035 26.339,38.57674 44.88477,33.60742 8.25287,-2.21136 15.24109,-8.02371 19.44922,-17.54101 0.42664,-1.00415 0.10788,-2.57221 -0.76368,-3.22852 l -9.87109,-7.9043 c -0.77883,-0.68114 -1.98493,-0.35835 -2.44336,0.52735 -2.35308,4.57115 -6.54213,7.85372 -10.90039,9.02148 -10.47836,2.8077 -21.19125,-6.01683 -24.71875,-19.18164 -2.30577,-8.60524 -1.13645,-17.17634 2.81836,-22.91211 z"
         style="font-style:normal;font-variant:normal;font-weight:500;font-stretch:normal;font-size:96px;line-height:1.25;font-family:'Brandon Grotesque';-inkscape-font-specification:'Brandon Grotesque weight=423';letter-spacing:0px;word-spacing:0px;fill:#ff710d;fill-opacity:1;stroke:none;stroke-width:3.69736171;stroke-linecap:round;stroke-linejoin:round;stroke-miterlimit:4;stroke-dasharray:none;stroke-opacity:1;paint-order:normal"
         inkscape:connector-curvature="0" />
      <path
         id="path1195"
         transform="scale(0.26458333)"
         d="m 191.92969,494.64258 c -1.70457,2.93461 -3.06349,6.1812 -4.03125,9.66406 3.20444,4.30074 9.25666,6.25863 15.60156,6.74805 1.2839,-4.77889 3.83674,-8.76546 7.49219,-11.17774 -4.04617,-0.62984 -8.29795,-1.27211 -11.99219,-2.13672 -3.15928,-0.7394 -5.42155,-1.85919 -7.07031,-3.09765 z"
         style="fill:#ff8f3f;fill-opacity:1;stroke:none;stroke-width:0.99999994px;stroke-linecap:butt;stroke-linejoin:miter;stroke-opacity:1"
         inkscape:connector-curvature="0" />
    </g>
    <ellipse
       style="fill:#ff8f3f;fill-opacity:1;fill-rule:nonzero;stroke:none;stroke-width:0.37550372;stroke-linecap:round;stroke-linejoin:round;stroke-miterlimit:4;stroke-dasharray:none;stroke-opacity:1;paint-order:normal"
       id="path1226"
       cx="13.490541"
       cy="118.01387"
       rx="0.73499119"
       ry="0.98902398" />
    <ellipse
       ry="0.63580108"
       rx="0.53453904"
       cy="120.48643"
       cx="12.354639"
       id="ellipse1237"
       style="fill:#ff8f3f;fill-opacity:1;fill-rule:nonzero;stroke:none;stroke-width:0.25675571;stroke-linecap:round;stroke-linejoin:round;stroke-miterlimit:4;stroke-dasharray:none;stroke-opacity:1;paint-order:normal" />
    <ellipse
       style="fill:#ff8f3f;fill-opacity:1;fill-rule:nonzero;stroke:none;stroke-width:0.34764889;stroke-linecap:round;stroke-linejoin:round;stroke-miterlimit:4;stroke-dasharray:none;stroke-opacity:1;paint-order:normal"
       id="path1226-6"
       cx="12.22101"
       cy="122.97432"
       rx="0.73499119"
       ry="0.84773487" />
    <ellipse
       ry="0.80180854"
       rx="0.73499119"
       cy="123.48369"
       cx="24.769251"
       id="ellipse1245"
       style="fill:#ff8f3f;fill-opacity:1;fill-rule:nonzero;stroke:none;stroke-width:0.33810079;stroke-linecap:round;stroke-linejoin:round;stroke-miterlimit:4;stroke-dasharray:none;stroke-opacity:1;paint-order:normal" />
    <ellipse
       style="fill:#ff8f3f;fill-opacity:1;fill-rule:nonzero;stroke:none;stroke-width:0.30864239;stroke-linecap:round;stroke-linejoin:round;stroke-miterlimit:4;stroke-dasharray:none;stroke-opacity:1;paint-order:normal"
       id="ellipse1247"
       cx="26.979776"
       cy="125.84686"
       rx="0.66817385"
       ry="0.73499113" />
    <ellipse
       ry="0.53453898"
       rx="0.4009043"
       cy="125.91205"
       cx="25.174913"
       id="ellipse1249"
       style="fill:#ff8f3f;fill-opacity:1;fill-rule:nonzero;stroke:none;stroke-width:0.20388246;stroke-linecap:round;stroke-linejoin:round;stroke-miterlimit:4;stroke-dasharray:none;stroke-opacity:1;paint-order:normal" />
    <ellipse
       ry="0.80180854"
       rx="0.73499119"
       cy="101.94299"
       cx="11.487978"
       id="ellipse1251"
       style="fill:#ffab70;fill-opacity:1;fill-rule:nonzero;stroke:none;stroke-width:0.33810079;stroke-linecap:round;stroke-linejoin:round;stroke-miterlimit:4;stroke-dasharray:none;stroke-opacity:1;paint-order:normal" />
    <ellipse
       style="fill:#ffab70;fill-opacity:1;fill-rule:nonzero;stroke:none;stroke-width:0.33810079;stroke-linecap:round;stroke-linejoin:round;stroke-miterlimit:4;stroke-dasharray:none;stroke-opacity:1;paint-order:normal"
       id="ellipse1253"
       cx="22.638277"
       cy="101.75399"
       rx="0.73499119"
       ry="0.80180854" />
    <ellipse
       style="fill:#ffab70;fill-opacity:1;fill-rule:nonzero;stroke:none;stroke-width:0.33810079;stroke-linecap:round;stroke-linejoin:round;stroke-miterlimit:4;stroke-dasharray:none;stroke-opacity:1;paint-order:normal"
       id="ellipse1255"
       cx="16.590662"
       cy="100.43108"
       rx="0.73499119"
       ry="0.80180854" />
    <path
       inkscape:connector-curvature="0"
       style="font-style:normal;font-variant:normal;font-weight:500;font-stretch:normal;font-size:96px;line-height:1.25;font-family:'Brandon Grotesque';-inkscape-font-specification:'Brandon Grotesque weight=423';letter-spacing:0px;word-spacing:0px;fill:#ffcc70;fill-opacity:1;stroke:none;stroke-width:0.86500001;stroke-linecap:round;stroke-linejoin:round;stroke-miterlimit:4;stroke-dasharray:none;stroke-opacity:1;paint-order:normal"
       d="m 59.81867,111.80954 c -5.08,0 -9.11883,4.08947 -9.11883,9.16947 0,5.08 4.03883,9.11882 9.11883,9.11882 5.08,0 9.14414,-4.03882 9.14414,-9.11882 0,-5.08 -4.06414,-9.16947 -9.14414,-9.16947 z m 20.09283,0 c -5.08,0 -9.16947,4.08947 -9.16947,9.16947 0,5.08 4.08947,9.11882 9.16947,9.11882 2.2606,0 4.44503,-0.78753 6.17223,-2.46393 0.1778,-0.1778 0.20312,-0.50795 0.0253,-0.68575 l -1.98127,-2.1084 c -0.1524,-0.1778 -0.48263,-0.17772 -0.66043,-0.0253 -0.9144,0.7874 -2.20961,1.21905 -3.40341,1.21905 -2.8702,0 -5.00383,-2.33687 -5.00383,-5.15627 0,-2.8448 2.10831,-5.23224 4.97851,-5.23224 1.2446,0 2.48893,0.45733 3.42873,1.29553 0.1778,0.1778 0.45731,0.1778 0.63511,0 l 1.98127,-2.05776 c 0.2032,-0.2032 0.20328,-0.50787 -0.0253,-0.71107 -1.7272,-1.5748 -3.60691,-2.36213 -6.14691,-2.36213 z m -40.33191,0.25425 c -0.2794,0 -0.48266,0.22814 -0.48266,0.48214 v 16.815 c 0,0.254 0.20326,0.48265 0.48266,0.48265 h 9.55032 c 0.2794,0 0.48266,-0.22865 0.48266,-0.48265 v -2.76831 c 0,-0.254 -0.20326,-0.48266 -0.48266,-0.48266 H 43.0848 v -13.56403 c 0,-0.254 -0.22865,-0.48214 -0.48265,-0.48214 z m 50.18299,0 c -0.3556,0 -0.60979,0.27907 -0.60979,0.60927 v 16.56074 c 0,0.3302 0.25419,0.60978 0.60979,0.60978 h 2.97139 c 0.3302,0 0.60978,-0.27958 0.60978,-0.60978 v -7.56905 l 5.86734,7.97575 c 0.0508,0.0762 0.27954,0.17776 0.45734,0.17776 h 3.50521 c 0.4826,0 0.76206,-0.55899 0.48266,-0.93999 l -6.47712,-8.43256 5.94382,-7.44244 c 0.2794,-0.381 0.0253,-0.93948 -0.45734,-0.93948 h -3.20032 c -0.1524,0 -0.38106,0.12673 -0.48266,0.25373 l -5.63893,7.03575 v -6.68021 c 0,-0.3302 -0.27958,-0.60927 -0.60978,-0.60927 z m -29.94391,3.80959 c 2.794,0 5.07979,2.31163 5.07979,5.10563 0,2.7686 -2.28579,5.05447 -5.07979,5.05447 -2.7686,0 -5.05448,-2.28587 -5.05448,-5.05447 0,-2.794 2.28588,-5.10563 5.05448,-5.10563 z"
       id="path1257" />
    <path
       style="font-style:normal;font-variant:normal;font-weight:500;font-stretch:normal;font-size:96px;line-height:1.25;font-family:'Brandon Grotesque';-inkscape-font-specification:'Brandon Grotesque weight=423';letter-spacing:0px;word-spacing:0px;fill:#ffffff;fill-opacity:0.51123597;stroke:none;stroke-width:0.6622805;stroke-linecap:round;stroke-linejoin:round;stroke-miterlimit:4;stroke-dasharray:none;stroke-opacity:1;paint-order:normal"
       d="m 0.8676487,111.36844 c -1.049536,0.9678 -1.934295,2.27944 -2.507216,3.83997 -0.550484,1.49942 -0.732165,3.01208 -0.593796,4.39195 l 2.203728,-0.86222 c 0.04071,-0.47808 0.473466,-2.05363 0.650785,-2.53661 0.425159,-1.15806 1.367083,-2.64218 2.230982,-3.18305 z"
       id="path1296"
       inkscape:connector-curvature="0"
       sodipodi:nodetypes="ccccccc" />
    <path
       style="font-style:normal;font-variant:normal;font-weight:500;font-stretch:normal;font-size:96px;line-height:1.25;font-family:'Brandon Grotesque';-inkscape-font-specification:'Brandon Grotesque weight=423';letter-spacing:0px;word-spacing:0px;fill:#ffffff;fill-opacity:0.51123597;stroke:none;stroke-width:0.6622805;stroke-linecap:round;stroke-linejoin:round;stroke-miterlimit:4;stroke-dasharray:none;stroke-opacity:1;paint-order:normal"
       d="m 23.5761,111.26378 c -0.8611,1.13871 -1.499015,2.58656 -1.785865,4.224 -0.275617,1.57331 -0.185934,3.0942 0.195148,4.42761 l 2.015707,-1.23966 c -0.0448,-0.47771 0.1015,-2.10506 0.19024,-2.61185 0.21286,-1.21512 0.87642,-2.84287 1.6306,-3.52849 z"
       id="path1296-6"
       inkscape:connector-curvature="0"
       sodipodi:nodetypes="ccccccc" />
    <ellipse
       style="fill:#ff8f3f;fill-opacity:1;fill-rule:nonzero;stroke:none;stroke-width:0.20388246;stroke-linecap:round;stroke-linejoin:round;stroke-miterlimit:4;stroke-dasharray:none;stroke-opacity:1;paint-order:normal"
       id="ellipse1330"
       cx="23.30401"
       cy="122.30391"
       rx="0.4009043"
       ry="0.53453898" />
    <ellipse
       ry="0.73499113"
       rx="0.66817385"
       cy="127.25003"
       cx="34.596962"
       id="ellipse1332"
       style="fill:#ff8f3f;fill-opacity:1;fill-rule:nonzero;stroke:none;stroke-width:0.30864239;stroke-linecap:round;stroke-linejoin:round;stroke-miterlimit:4;stroke-dasharray:none;stroke-opacity:1;paint-order:normal" />
    <ellipse
       style="fill:#ff8f3f;fill-opacity:1;fill-rule:nonzero;stroke:none;stroke-width:0.20388246;stroke-linecap:round;stroke-linejoin:round;stroke-miterlimit:4;stroke-dasharray:none;stroke-opacity:1;paint-order:normal"
       id="ellipse1334"
       cx="32.324356"
       cy="126.64703"
       rx="0.4009043"
       ry="0.53453898" />
    <ellipse
       style="fill:#ff8f3f;fill-opacity:1;fill-rule:nonzero;stroke:none;stroke-width:0.25675571;stroke-linecap:round;stroke-linejoin:round;stroke-miterlimit:4;stroke-dasharray:none;stroke-opacity:1;paint-order:normal"
       id="ellipse1336"
       cx="32.934387"
       cy="128.77179"
       rx="0.53453904"
       ry="0.63580108" />
    <ellipse
       ry="0.84773487"
       rx="0.73499119"
       cy="126.18155"
       cx="-0.54111338"
       id="ellipse1338"
       style="fill:#ff8f3f;fill-opacity:1;fill-rule:nonzero;stroke:none;stroke-width:0.34764889;stroke-linecap:round;stroke-linejoin:round;stroke-miterlimit:4;stroke-dasharray:none;stroke-opacity:1;paint-order:normal" />
    <ellipse
       style="fill:#ff8f3f;fill-opacity:1;fill-rule:nonzero;stroke:none;stroke-width:0.25675571;stroke-linecap:round;stroke-linejoin:round;stroke-miterlimit:4;stroke-dasharray:none;stroke-opacity:1;paint-order:normal"
       id="ellipse1340"
       cx="1.2629561"
       cy="127.30181"
       rx="0.53453904"
       ry="0.63580108" />
    <ellipse
       ry="0.98902398"
       rx="0.73499119"
       cy="123.55971"
       cx="-0.40747687"
       id="ellipse1342"
       style="fill:#ff8f3f;fill-opacity:1;fill-rule:nonzero;stroke:none;stroke-width:0.37550372;stroke-linecap:round;stroke-linejoin:round;stroke-miterlimit:4;stroke-dasharray:none;stroke-opacity:1;paint-order:normal" />
  </g>
</svg>
