<?xml version="1.0" encoding="UTF-8" standalone="no"?>
<!-- Created with Inkscape (http://www.inkscape.org/) -->

<svg
   xmlns:dc="http://purl.org/dc/elements/1.1/"
   xmlns:cc="http://creativecommons.org/ns#"
   xmlns:rdf="http://www.w3.org/1999/02/22-rdf-syntax-ns#"
   xmlns:svg="http://www.w3.org/2000/svg"
   xmlns="http://www.w3.org/2000/svg"
   xmlns:sodipodi="http://sodipodi.sourceforge.net/DTD/sodipodi-0.dtd"
   xmlns:inkscape="http://www.inkscape.org/namespaces/inkscape"
   width="41.521358mm"
   height="31.906376mm"
   viewBox="0 0 41.521358 31.906376"
   version="1.1"
   id="svg2057"
   inkscape:version="0.92.4 (5da689c313, 2019-01-14)"
   sodipodi:docname="logo_min.svg">
  <defs
     id="defs2051" />
  <sodipodi:namedview
     id="base"
     pagecolor="#ffffff"
     bordercolor="#666666"
     borderopacity="1.0"
     inkscape:pageopacity="0.0"
     inkscape:pageshadow="2"
     inkscape:zoom="1.4"
     inkscape:cx="33.181457"
     inkscape:cy="106.87569"
     inkscape:document-units="mm"
     inkscape:current-layer="layer1"
     showgrid="false"
     inkscape:window-width="1366"
     inkscape:window-height="745"
     inkscape:window-x="-8"
     inkscape:window-y="-8"
     inkscape:window-maximized="1" />
  <metadata
     id="metadata2054">
    <rdf:RDF>
      <cc:Work
         rdf:about="">
        <dc:format>image/svg+xml</dc:format>
        <dc:type
           rdf:resource="http://purl.org/dc/dcmitype/StillImage" />
        <dc:title></dc:title>
      </cc:Work>
    </rdf:RDF>
  </metadata>
  <g
     inkscape:label="Calque 1"
     inkscape:groupmode="layer"
     id="layer1"
     transform="translate(-105.92508,-149.95111)">
    <path
       d="m 130.53285,156.18779 1.34939,0.36157 c 0.17175,0.046 0.43857,-0.0666 0.54024,-0.24969 l 2.22292,-3.58543 c 0.19017,-0.31719 0.0417,-0.64623 -0.27727,-0.7317 l -2.52706,-0.67712 c -0.24534,-0.0657 -0.52532,0.0959 -0.59106,0.34125 l -1.05841,3.95006 c -0.0657,0.24534 0.0959,0.52532 0.34125,0.59106 z"
       style="font-style:normal;font-variant:normal;font-weight:500;font-stretch:normal;font-size:96px;line-height:1.25;font-family:'Brandon Grotesque';-inkscape-font-specification:'Brandon Grotesque weight=423';letter-spacing:0px;word-spacing:0px;fill:#ff8f3f;fill-opacity:1;stroke:none;stroke-width:0.86500001;stroke-linecap:round;stroke-linejoin:round;stroke-miterlimit:4;stroke-dasharray:none;stroke-opacity:1;paint-order:normal"
       id="path949"
       inkscape:connector-curvature="0" />
    <path
       inkscape:connector-curvature="0"
       id="path976"
       style="font-style:normal;font-variant:normal;font-weight:500;font-stretch:normal;font-size:96px;line-height:1.25;font-family:'Brandon Grotesque';-inkscape-font-specification:'Brandon Grotesque weight=423';letter-spacing:0px;word-spacing:0px;fill:#ff8f3f;fill-opacity:1;stroke:none;stroke-width:0.86500001;stroke-linecap:round;stroke-linejoin:round;stroke-miterlimit:4;stroke-dasharray:none;stroke-opacity:1;paint-order:normal"
       d="m 123.02783,156.18779 -1.3494,0.36157 c -0.17174,0.046 -0.43857,-0.0666 -0.54023,-0.24969 l -2.22292,-3.58543 c -0.19018,-0.31719 -0.0417,-0.64623 0.27727,-0.7317 l 2.52705,-0.67712 c 0.24535,-0.0657 0.52532,0.0959 0.59106,0.34125 l 1.05842,3.95006 c 0.0657,0.24534 -0.0959,0.52532 -0.34125,0.59106 z" />
    <path
       inkscape:connector-curvature="0"
       id="path978"
       d="m 124.83238,149.95111 c -0.3302,0 -0.55894,0.2795 -0.45734,0.6351 l 1.21956,4.03851 c 0.0508,0.2032 0.27902,0.38137 0.45682,0.38137 h 0.061 1.33635 0.0605 c 0.1778,0 0.40654,-0.17817 0.45734,-0.38137 l 1.21905,-4.03851 c 0.1016,-0.3556 -0.12662,-0.6351 -0.45682,-0.6351 h -1.28003 -1.33635 z"
       style="font-style:normal;font-variant:normal;font-weight:500;font-stretch:normal;font-size:96px;line-height:1.25;font-family:'Brandon Grotesque';-inkscape-font-specification:'Brandon Grotesque weight=423';letter-spacing:0px;word-spacing:0px;fill:#ff8f3f;fill-opacity:1;stroke:none;stroke-width:0.86500001;stroke-linecap:round;stroke-linejoin:round;stroke-miterlimit:4;stroke-dasharray:none;stroke-opacity:1;paint-order:normal" />
    <g
       id="g1162"
       transform="matrix(0.99539028,0.09590718,-0.0982615,1.019825,94.666725,25.355229)">
      <path
         inkscape:connector-curvature="0"
         id="path947"
         style="font-style:normal;font-variant:normal;font-weight:500;font-stretch:normal;font-size:96px;line-height:1.25;font-family:'Brandon Grotesque';-inkscape-font-specification:'Brandon Grotesque weight=423';letter-spacing:0px;word-spacing:0px;fill:#ffcc70;fill-opacity:1;stroke:none;stroke-width:0.97826028;stroke-linecap:round;stroke-linejoin:round;stroke-miterlimit:4;stroke-dasharray:none;stroke-opacity:1;paint-order:normal"
         d="m 25.733373,136.36841 c -1.681654,6.27602 0.88242,12.31072 5.789322,13.62552 4.906904,1.3148 10.169342,-2.62279 11.850994,-8.89881 1.681654,-6.27601 -0.890138,-12.38005 -5.797039,-13.69485 -4.906905,-1.3148 -10.161625,2.69213 -11.843277,8.96814 z m 3.925523,1.05184 c 0.924909,-3.45181 3.898167,-5.71573 6.572429,-4.99917 2.698798,0.72314 4.141751,4.17039 3.216842,7.6222 -0.916501,3.42043 -3.881351,5.65298 -6.580148,4.92984 -2.674263,-0.71657 -4.125624,-4.13244 -3.209123,-7.55287 z" />
      <path
         transform="scale(0.26458333)"
         id="path1156"
         d="m 98.61523,511.68946 c 0,0 0.125575,-1.80857 -1.355464,3.71874 -6.355858,23.72039 3.335084,46.52873 21.880854,51.49805 18.54578,4.96932 38.43517,-9.91242 44.79102,-33.63281 3.1762,-11.85372 2.33691,-23.54522 -1.61133,-32.89649 h -25.86328 c 0.16007,0.0372 0.32093,0.0686 0.48047,0.11133 10.20018,2.73313 15.65392,15.76238 12.1582,28.8086 -3.46394,12.9276 -14.67091,21.36594 -24.87109,18.63281 -10.10745,-2.7083 -15.59285,-15.61927 -12.12891,-28.54688 2.66822,-9.95794 9.84806,-17.29209 17.5918,-19.00586 z"
         style="font-style:normal;font-variant:normal;font-weight:500;font-stretch:normal;font-size:96px;line-height:1.25;font-family:'Brandon Grotesque';-inkscape-font-specification:'Brandon Grotesque weight=423';letter-spacing:0px;word-spacing:0px;fill:#ff710d;fill-opacity:1;stroke:none;stroke-width:3.69736171;stroke-linecap:round;stroke-linejoin:round;stroke-miterlimit:4;stroke-dasharray:none;stroke-opacity:1;paint-order:normal"
         inkscape:connector-curvature="0"
         sodipodi:nodetypes="cssscccscscc" />
    </g>
    <path
       style="font-style:normal;font-variant:normal;font-weight:500;font-stretch:normal;font-size:96px;line-height:1.25;font-family:'Brandon Grotesque';-inkscape-font-specification:'Brandon Grotesque weight=423';letter-spacing:0px;word-spacing:0px;fill:#ff8f3f;fill-opacity:1;stroke:none;stroke-width:0.99019456;stroke-linecap:round;stroke-linejoin:round;stroke-miterlimit:4;stroke-dasharray:none;stroke-opacity:1;paint-order:normal"
       d="m 123.37684,162.16443 c -0.32641,0.1158 -2.89522,0.99455 -6.77183,1.47567 0.0399,0.003 0.0802,5.3e-4 0.12003,0.004 l 5e-5,-5.3e-4 c 0.29478,0.0283 0.58559,0.0922 0.87051,0.18973 0,0 5.3e-4,5e-5 5.3e-4,5e-5 0.0411,0.0142 0.0823,0.0267 0.12312,0.0422 0.0817,0.0311 0.1623,0.0646 0.24104,0.10083 0.15747,0.0725 0.30863,0.15508 0.45383,0.24692 0.21782,0.13775 0.42203,0.29641 0.61109,0.47376 0.063,0.0591 0.12402,0.12048 0.18374,0.18365 0.0597,0.0632 0.11792,0.12849 0.17429,0.19552 0.0563,0.067 0.11101,0.13558 0.16391,0.20621 0,0 -5e-5,5.3e-4 -5e-5,5.3e-4 0.0529,0.0707 0.1046,0.14281 0.15405,0.21697 0.0496,0.0744 0.097,0.15043 0.14311,0.22814 0.046,0.0776 0.0904,0.15651 0.13289,0.23727 0,0 -5e-5,5.3e-4 -5e-5,5.3e-4 0.0342,0.0652 0.0667,0.13184 0.0987,0.19887 1.85727,-0.2449 3.47812,-0.54862 4.54735,-0.8464 -0.25929,-1.15488 -0.67941,-2.22097 -1.24626,-3.15458 z m -8.18232,1.62593 c -0.63539,0.0561 -1.29402,0.10091 -1.97931,0.12684 -6.0118,0.22742 -5.87989,2.00893 -5.87989,2.00893 0.99064,0.4195 2.48835,0.63464 4.20853,0.70868 6.3e-4,-9.8e-4 10e-4,-0.002 0.002,-0.003 0.0151,-0.0231 0.0289,-0.0477 0.0442,-0.0708 0.10743,-0.16097 0.22037,-0.31574 0.33662,-0.46543 0.0299,-0.0385 0.0609,-0.0753 0.0914,-0.113 0.089,-0.11027 0.18046,-0.21688 0.27383,-0.32042 0.0411,-0.0454 0.0822,-0.0907 0.1241,-0.13485 0.0925,-0.0977 0.18699,-0.19132 0.28314,-0.28229 0.0361,-0.0341 0.071,-0.0704 0.10757,-0.10345 0.1276,-0.11576 0.25854,-0.22509 0.39145,-0.32877 0.048,-0.0375 0.0972,-0.0714 0.14583,-0.10722 0.0912,-0.0672 0.18301,-0.13226 0.27616,-0.1936 0.0584,-0.0384 0.1173,-0.0757 0.17637,-0.11173 0.0865,-0.0528 0.17374,-0.10208 0.26156,-0.14979 0.07,-0.038 0.1395,-0.0781 0.21021,-0.11272 0.24969,-0.12245 0.50347,-0.22397 0.75969,-0.3034 0.005,-0.002 0.009,-0.002 0.0139,-0.004 0.0508,-0.0156 0.10191,-0.0262 0.15285,-0.04 z"
       id="path1181"
       inkscape:connector-curvature="0" />
    <path
       d="m 130.76422,172.51903 c 1.64331,6.40848 6.80974,10.42248 11.60476,9.07993 2.13379,-0.59744 3.94094,-2.16805 5.02895,-4.73932 0.11031,-0.27129 0.0275,-0.69455 -0.19787,-0.87186 l -2.55203,-2.13592 c -0.20137,-0.18403 -0.51305,-0.0968 -0.63157,0.14248 -0.6084,1.23498 -1.69144,2.12206 -2.81828,2.43755 -2.70918,0.75855 -5.47902,-1.62548 -6.39105,-5.18219 -0.92026,-3.58876 0.29732,-7.1579 3.00651,-7.91645 1.17478,-0.32892 2.49746,-0.0811 3.65568,0.72794 0.22535,0.17731 0.48907,0.10346 0.59938,-0.16782 l 1.20452,-3.11903 c 0.12607,-0.31005 0.0275,-0.69456 -0.25404,-0.89048 -2.13973,-1.53016 -4.16861,-2.02673 -6.56612,-1.35546 -4.79502,1.34256 -7.33215,7.58214 -5.68884,13.99063 z"
       style="font-style:normal;font-variant:normal;font-weight:500;font-stretch:normal;font-size:96px;line-height:1.25;font-family:'Brandon Grotesque';-inkscape-font-specification:'Brandon Grotesque weight=423';letter-spacing:0px;word-spacing:0px;fill:#ffcc70;fill-opacity:1;stroke:none;stroke-width:0.97719622;stroke-linecap:round;stroke-linejoin:round;stroke-miterlimit:4;stroke-dasharray:none;stroke-opacity:1;paint-order:normal"
       id="path951"
       inkscape:connector-curvature="0" />
    <path
       inkscape:connector-curvature="0"
       style="font-style:normal;font-variant:normal;font-weight:500;font-stretch:normal;font-size:96px;line-height:1.25;font-family:'Brandon Grotesque';-inkscape-font-specification:'Brandon Grotesque weight=423';letter-spacing:0px;word-spacing:0px;fill:#ff710d;fill-opacity:1;stroke:none;stroke-width:0.97719622;stroke-linecap:round;stroke-linejoin:round;stroke-miterlimit:4;stroke-dasharray:none;stroke-opacity:1;paint-order:normal"
       d="m 130.71661,165.05952 c -0.59624,2.24221 -0.62514,4.83669 0.0475,7.4597 1.64331,6.40847 6.80997,10.4222 11.60499,9.07964 2.13378,-0.59743 3.94059,-2.16774 5.02861,-4.73901 0.11031,-0.27129 0.0279,-0.69493 -0.19745,-0.87225 l -2.55218,-2.13549 c -0.20137,-0.18402 -0.5132,-0.0968 -0.63173,0.14248 -0.60839,1.23498 -1.69147,2.12182 -2.81831,2.43731 -2.70918,0.75855 -5.47901,-1.62555 -6.39105,-5.18226 -0.59615,-2.32486 -0.29383,-4.6405 0.72869,-6.19012 z"
       id="path1192" />
    <path
       inkscape:connector-curvature="0"
       style="fill:#ff8f3f;fill-opacity:1;stroke:none;stroke-width:0.26429552px;stroke-linecap:butt;stroke-linejoin:miter;stroke-opacity:1"
       d="m 131.75889,162.4486 c -0.44071,0.79284 -0.79206,1.66996 -1.04228,2.61092 0.82851,1.16192 2.39332,1.69088 4.0338,1.82311 0.33195,-1.29111 0.99199,-2.36815 1.93711,-3.01987 -1.04614,-0.17016 -2.14544,-0.34368 -3.10059,-0.57727 -0.81684,-0.19977 -1.40175,-0.5023 -1.82804,-0.83689 z"
       id="path1195" />
    <ellipse
       style="fill:#ff8f3f;fill-opacity:1;fill-rule:nonzero;stroke:none;stroke-width:0.37550372;stroke-linecap:round;stroke-linejoin:round;stroke-miterlimit:4;stroke-dasharray:none;stroke-opacity:1;paint-order:normal"
       id="path1226"
       cx="123.10732"
       cy="168.84731"
       rx="0.73499119"
       ry="0.98902404" />
    <ellipse
       ry="0.63580108"
       rx="0.53453904"
       cy="171.31987"
       cx="121.97143"
       id="ellipse1237"
       style="fill:#ff8f3f;fill-opacity:1;fill-rule:nonzero;stroke:none;stroke-width:0.25675571;stroke-linecap:round;stroke-linejoin:round;stroke-miterlimit:4;stroke-dasharray:none;stroke-opacity:1;paint-order:normal" />
    <ellipse
       style="fill:#ff8f3f;fill-opacity:1;fill-rule:nonzero;stroke:none;stroke-width:0.34764889;stroke-linecap:round;stroke-linejoin:round;stroke-miterlimit:4;stroke-dasharray:none;stroke-opacity:1;paint-order:normal"
       id="path1226-6"
       cx="121.83779"
       cy="173.80775"
       rx="0.73499119"
       ry="0.84773493" />
    <ellipse
       ry="0.80180854"
       rx="0.73499119"
       cy="174.31712"
       cx="134.38603"
       id="ellipse1245"
       style="fill:#ff8f3f;fill-opacity:1;fill-rule:nonzero;stroke:none;stroke-width:0.33810079;stroke-linecap:round;stroke-linejoin:round;stroke-miterlimit:4;stroke-dasharray:none;stroke-opacity:1;paint-order:normal" />
    <ellipse
       style="fill:#ff8f3f;fill-opacity:1;fill-rule:nonzero;stroke:none;stroke-width:0.30864239;stroke-linecap:round;stroke-linejoin:round;stroke-miterlimit:4;stroke-dasharray:none;stroke-opacity:1;paint-order:normal"
       id="ellipse1247"
       cx="136.59656"
       cy="176.6803"
       rx="0.66817385"
       ry="0.73499113" />
    <ellipse
       ry="0.53453898"
       rx="0.4009043"
       cy="176.7455"
       cx="134.7917"
       id="ellipse1249"
       style="fill:#ff8f3f;fill-opacity:1;fill-rule:nonzero;stroke:none;stroke-width:0.20388247;stroke-linecap:round;stroke-linejoin:round;stroke-miterlimit:4;stroke-dasharray:none;stroke-opacity:1;paint-order:normal" />
    <ellipse
       ry="0.80180854"
       rx="0.73499119"
       cy="152.77643"
       cx="121.10476"
       id="ellipse1251"
       style="fill:#ffab70;fill-opacity:1;fill-rule:nonzero;stroke:none;stroke-width:0.33810079;stroke-linecap:round;stroke-linejoin:round;stroke-miterlimit:4;stroke-dasharray:none;stroke-opacity:1;paint-order:normal" />
    <ellipse
       style="fill:#ffab70;fill-opacity:1;fill-rule:nonzero;stroke:none;stroke-width:0.33810079;stroke-linecap:round;stroke-linejoin:round;stroke-miterlimit:4;stroke-dasharray:none;stroke-opacity:1;paint-order:normal"
       id="ellipse1253"
       cx="132.25505"
       cy="152.58743"
       rx="0.73499119"
       ry="0.80180854" />
    <ellipse
       style="fill:#ffab70;fill-opacity:1;fill-rule:nonzero;stroke:none;stroke-width:0.33810079;stroke-linecap:round;stroke-linejoin:round;stroke-miterlimit:4;stroke-dasharray:none;stroke-opacity:1;paint-order:normal"
       id="ellipse1255"
       cx="126.20745"
       cy="151.26453"
       rx="0.73499119"
       ry="0.80180854" />
    <path
       style="font-style:normal;font-variant:normal;font-weight:500;font-stretch:normal;font-size:96px;line-height:1.25;font-family:'Brandon Grotesque';-inkscape-font-specification:'Brandon Grotesque weight=423';letter-spacing:0px;word-spacing:0px;fill:#ffffff;fill-opacity:0.51123597;stroke:none;stroke-width:0.6622805;stroke-linecap:round;stroke-linejoin:round;stroke-miterlimit:4;stroke-dasharray:none;stroke-opacity:1;paint-order:normal"
       d="m 110.48443,162.20188 c -1.04953,0.9678 -1.93429,2.27944 -2.50721,3.83997 -0.55049,1.49942 -0.73217,3.01208 -0.5938,4.39195 l 2.20373,-0.86222 c 0.0407,-0.47808 0.47347,-2.05363 0.65079,-2.53661 0.42515,-1.15806 1.36708,-2.64218 2.23098,-3.18305 z"
       id="path1296"
       inkscape:connector-curvature="0"
       sodipodi:nodetypes="ccccccc" />
    <path
       style="font-style:normal;font-variant:normal;font-weight:500;font-stretch:normal;font-size:96px;line-height:1.25;font-family:'Brandon Grotesque';-inkscape-font-specification:'Brandon Grotesque weight=423';letter-spacing:0px;word-spacing:0px;fill:#ffffff;fill-opacity:0.51123597;stroke:none;stroke-width:0.6622805;stroke-linecap:round;stroke-linejoin:round;stroke-miterlimit:4;stroke-dasharray:none;stroke-opacity:1;paint-order:normal"
       d="m 133.19289,162.09722 c -0.8611,1.13871 -1.49902,2.58656 -1.78587,4.224 -0.27562,1.57331 -0.18593,3.0942 0.19515,4.42761 l 2.01571,-1.23966 c -0.0448,-0.47771 0.1015,-2.10506 0.19024,-2.61185 0.21286,-1.21512 0.87642,-2.84287 1.6306,-3.52849 z"
       id="path1296-6"
       inkscape:connector-curvature="0"
       sodipodi:nodetypes="ccccccc" />
    <ellipse
       style="fill:#ff8f3f;fill-opacity:1;fill-rule:nonzero;stroke:none;stroke-width:0.20388247;stroke-linecap:round;stroke-linejoin:round;stroke-miterlimit:4;stroke-dasharray:none;stroke-opacity:1;paint-order:normal"
       id="ellipse1330"
       cx="132.92079"
       cy="173.13734"
       rx="0.4009043"
       ry="0.53453898" />
    <ellipse
       ry="0.73499113"
       rx="0.66817385"
       cy="178.08347"
       cx="144.21375"
       id="ellipse1332"
       style="fill:#ff8f3f;fill-opacity:1;fill-rule:nonzero;stroke:none;stroke-width:0.30864239;stroke-linecap:round;stroke-linejoin:round;stroke-miterlimit:4;stroke-dasharray:none;stroke-opacity:1;paint-order:normal" />
    <ellipse
       style="fill:#ff8f3f;fill-opacity:1;fill-rule:nonzero;stroke:none;stroke-width:0.20388247;stroke-linecap:round;stroke-linejoin:round;stroke-miterlimit:4;stroke-dasharray:none;stroke-opacity:1;paint-order:normal"
       id="ellipse1334"
       cx="141.94113"
       cy="177.48047"
       rx="0.4009043"
       ry="0.53453898" />
    <ellipse
       style="fill:#ff8f3f;fill-opacity:1;fill-rule:nonzero;stroke:none;stroke-width:0.25675571;stroke-linecap:round;stroke-linejoin:round;stroke-miterlimit:4;stroke-dasharray:none;stroke-opacity:1;paint-order:normal"
       id="ellipse1336"
       cx="142.55116"
       cy="179.60522"
       rx="0.53453904"
       ry="0.63580108" />
    <ellipse
       ry="0.84773493"
       rx="0.73499119"
       cy="177.01498"
       cx="109.07567"
       id="ellipse1338"
       style="fill:#ff8f3f;fill-opacity:1;fill-rule:nonzero;stroke:none;stroke-width:0.34764889;stroke-linecap:round;stroke-linejoin:round;stroke-miterlimit:4;stroke-dasharray:none;stroke-opacity:1;paint-order:normal" />
    <ellipse
       style="fill:#ff8f3f;fill-opacity:1;fill-rule:nonzero;stroke:none;stroke-width:0.25675571;stroke-linecap:round;stroke-linejoin:round;stroke-miterlimit:4;stroke-dasharray:none;stroke-opacity:1;paint-order:normal"
       id="ellipse1340"
       cx="110.87974"
       cy="178.13524"
       rx="0.53453904"
       ry="0.63580108" />
    <ellipse
       ry="0.98902404"
       rx="0.73499119"
       cy="174.39314"
       cx="109.2093"
       id="ellipse1342"
       style="fill:#ff8f3f;fill-opacity:1;fill-rule:nonzero;stroke:none;stroke-width:0.37550372;stroke-linecap:round;stroke-linejoin:round;stroke-miterlimit:4;stroke-dasharray:none;stroke-opacity:1;paint-order:normal" />
  </g>
</svg>
