<?xml version="1.0" encoding="UTF-8"?>
<!DOCTYPE svg
PUBLIC "-//W3C//DTD SVG 1.1//EN"
       "http://www.w3.org/Graphics/SVG/1.1/DTD/svg11.dtd">
<svg viewBox="81 -4 1492 743" width="1411px" height="747px" xmlns="http://www.w3.org/2000/svg" version="1.1">
   <line x1="1059" y1="265" x2="1069" y2="265" style="stroke:#cb0;stroke-width:1;"/>
   <line x1="1153" y1="252" x2="1163" y2="252" style="stroke:#cb0;stroke-width:1;"/>
   <line x1="1069" y1="265" x2="1153" y2="252" style="stroke:#cb0;stroke-width:1;"/>
   <line x1="1066.5" y1="265" x2="1062.9644660941" y2="268.53553390593" style="stroke:#cb0;stroke-width:2;"/>
   <line x1="1066.5" y1="265" x2="1062.9644660941" y2="261.46446609407" style="stroke:#cb0;stroke-width:2;"/>
   <line x1="1158" y1="252" x2="1154.4644660941" y2="255.53553390593" style="stroke:#cb0;stroke-width:2;"/>
   <line x1="1158" y1="252" x2="1154.4644660941" y2="248.46446609407" style="stroke:#cb0;stroke-width:2;"/>
   <line x1="941" y1="285" x2="931" y2="285" style="stroke:#bbb;stroke-width:1;"/>
   <line x1="793" y1="438" x2="783" y2="438" style="stroke:#bbb;stroke-width:1;"/>
   <line x1="931" y1="285" x2="793" y2="438" style="stroke:#bbb;stroke-width:1;"/>
   <line x1="933.5" y1="285" x2="937.03553390593" y2="288.53553390593" style="stroke:#bbb;stroke-width:2;"/>
   <line x1="933.5" y1="285" x2="937.03553390593" y2="281.46446609407" style="stroke:#bbb;stroke-width:2;"/>
   <line x1="788" y1="438" x2="791.53553390593" y2="441.53553390593" style="stroke:#bbb;stroke-width:2;"/>
   <line x1="788" y1="438" x2="791.53553390593" y2="434.46446609407" style="stroke:#bbb;stroke-width:2;"/>
   <line x1="685" y1="76" x2="675" y2="76" style="stroke:#b0b;stroke-width:1;"/>
   <line x1="481" y1="41" x2="471" y2="41" style="stroke:#b0b;stroke-width:1;"/>
   <line x1="675" y1="76" x2="481" y2="41" style="stroke:#b0b;stroke-width:1;"/>
   <line x1="677.5" y1="76" x2="681.03553390593" y2="79.535533905933" style="stroke:#b0b;stroke-width:2;"/>
   <line x1="677.5" y1="76" x2="681.03553390593" y2="72.464466094067" style="stroke:#b0b;stroke-width:2;"/>
   <line x1="476" y1="41" x2="479.53553390593" y2="44.535533905933" style="stroke:#b0b;stroke-width:2;"/>
   <line x1="476" y1="41" x2="479.53553390593" y2="37.464466094067" style="stroke:#b0b;stroke-width:2;"/>
   <line x1="685" y1="96" x2="675" y2="96" style="stroke:#b0b;stroke-width:1;"/>
   <line x1="681" y1="438" x2="691" y2="438" style="stroke:#b0b;stroke-width:1;"/>
   <line x1="675" y1="96" x2="681" y2="438" style="stroke:#b0b;stroke-width:1;"/>
   <line x1="677.5" y1="96" x2="681.03553390593" y2="99.535533905933" style="stroke:#b0b;stroke-width:2;"/>
   <line x1="677.5" y1="96" x2="681.03553390593" y2="92.464466094067" style="stroke:#b0b;stroke-width:2;"/>
   <line x1="686" y1="438" x2="682.46446609407" y2="441.53553390593" style="stroke:#b0b;stroke-width:2;"/>
   <line x1="686" y1="438" x2="682.46446609407" y2="434.46446609407" style="stroke:#b0b;stroke-width:2;"/>
   <line x1="96" y1="178" x2="86" y2="178" style="stroke:#c00;stroke-width:1;"/>
   <line x1="91" y1="333" x2="101" y2="333" style="stroke:#c00;stroke-width:1;"/>
   <line x1="86" y1="178" x2="91" y2="333" style="stroke:#c00;stroke-width:1;"/>
   <line x1="88.5" y1="178" x2="92.035533905933" y2="181.53553390593" style="stroke:#c00;stroke-width:2;"/>
   <line x1="88.5" y1="178" x2="92.035533905933" y2="174.46446609407" style="stroke:#c00;stroke-width:2;"/>
   <line x1="96" y1="333" x2="92.464466094067" y2="336.53553390593" style="stroke:#c00;stroke-width:2;"/>
   <line x1="96" y1="333" x2="92.464466094067" y2="329.46446609407" style="stroke:#c00;stroke-width:2;"/>
   <line x1="213" y1="158" x2="223" y2="158" style="stroke:#333;stroke-width:1;"/>
   <line x1="369" y1="41" x2="379" y2="41" style="stroke:#333;stroke-width:1;"/>
   <line x1="223" y1="158" x2="369" y2="41" style="stroke:#333;stroke-width:1;"/>
   <line x1="220.5" y1="158" x2="216.96446609407" y2="161.53553390593" style="stroke:#333;stroke-width:2;"/>
   <line x1="220.5" y1="158" x2="216.96446609407" y2="154.46446609407" style="stroke:#333;stroke-width:2;"/>
   <line x1="374" y1="41" x2="370.46446609407" y2="44.535533905933" style="stroke:#333;stroke-width:2;"/>
   <line x1="374" y1="41" x2="370.46446609407" y2="37.464466094067" style="stroke:#333;stroke-width:2;"/>
   <line x1="369" y1="435" x2="359" y2="435" style="stroke:#0b0;stroke-width:1;"/>
   <line x1="369" y1="41" x2="379" y2="41" style="stroke:#0b0;stroke-width:1;"/>
   <line x1="359" y1="435" x2="369" y2="41" style="stroke:#0b0;stroke-width:1;"/>
   <line x1="361.5" y1="435" x2="365.03553390593" y2="438.53553390593" style="stroke:#0b0;stroke-width:2;"/>
   <line x1="361.5" y1="435" x2="365.03553390593" y2="431.46446609407" style="stroke:#0b0;stroke-width:2;"/>
   <line x1="374" y1="41" x2="370.46446609407" y2="44.535533905933" style="stroke:#0b0;stroke-width:2;"/>
   <line x1="374" y1="41" x2="370.46446609407" y2="37.464466094067" style="stroke:#0b0;stroke-width:2;"/>
   <line x1="449" y1="455" x2="459" y2="455" style="stroke:#b0b;stroke-width:1;"/>
   <line x1="681" y1="438" x2="691" y2="438" style="stroke:#b0b;stroke-width:1;"/>
   <line x1="459" y1="455" x2="681" y2="438" style="stroke:#b0b;stroke-width:1;"/>
   <line x1="456.5" y1="455" x2="452.96446609407" y2="458.53553390593" style="stroke:#b0b;stroke-width:2;"/>
   <line x1="456.5" y1="455" x2="452.96446609407" y2="451.46446609407" style="stroke:#b0b;stroke-width:2;"/>
   <line x1="686" y1="438" x2="682.46446609407" y2="441.53553390593" style="stroke:#b0b;stroke-width:2;"/>
   <line x1="686" y1="438" x2="682.46446609407" y2="434.46446609407" style="stroke:#b0b;stroke-width:2;"/>
   <line x1="415" y1="644" x2="425" y2="644" style="stroke:#cb0;stroke-width:1;"/>
   <line x1="681" y1="438" x2="691" y2="438" style="stroke:#cb0;stroke-width:1;"/>
   <line x1="425" y1="644" x2="681" y2="438" style="stroke:#cb0;stroke-width:1;"/>
   <line x1="422.5" y1="644" x2="418.96446609407" y2="647.53553390593" style="stroke:#cb0;stroke-width:2;"/>
   <line x1="422.5" y1="644" x2="418.96446609407" y2="640.46446609407" style="stroke:#cb0;stroke-width:2;"/>
   <line x1="686" y1="438" x2="682.46446609407" y2="441.53553390593" style="stroke:#cb0;stroke-width:2;"/>
   <line x1="686" y1="438" x2="682.46446609407" y2="434.46446609407" style="stroke:#cb0;stroke-width:2;"/>
   <line x1="333" y1="664" x2="323" y2="664" style="stroke:#b0b;stroke-width:1;"/>
   <line x1="226" y1="582" x2="216" y2="582" style="stroke:#b0b;stroke-width:1;"/>
   <line x1="323" y1="664" x2="226" y2="582" style="stroke:#b0b;stroke-width:1;"/>
   <line x1="325.5" y1="664" x2="329.03553390593" y2="667.53553390593" style="stroke:#b0b;stroke-width:2;"/>
   <line x1="325.5" y1="664" x2="329.03553390593" y2="660.46446609407" style="stroke:#b0b;stroke-width:2;"/>
   <line x1="221" y1="582" x2="224.53553390593" y2="585.53553390593" style="stroke:#b0b;stroke-width:2;"/>
   <line x1="221" y1="582" x2="224.53553390593" y2="578.46446609407" style="stroke:#b0b;stroke-width:2;"/>
   <rect width="88" height="20" x="1163" y="222" style="fill:#007;stroke:black;"/>
   <text width="88" height="20" x="1168" y="236" style="fill:#fff;" font-family="Arial" font-size="16px"> alert</text>
   <rect width="88" height="20" x="1163" y="242" style="fill:#aea;stroke:black;"/>
   <text width="88" height="20" x="1168" y="256" style="fill:black;" font-family="Arial" font-size="16px">id</text>
   <rect width="88" height="20" x="1163" y="262" style="fill:none;stroke:black;"/>
   <text width="88" height="20" x="1168" y="276" style="fill:black;" font-family="Arial" font-size="16px">name</text>
   <rect width="88" height="20" x="1163" y="282" style="fill:none;stroke:black;"/>
   <text width="88" height="20" x="1168" y="296" style="fill:black;" font-family="Arial" font-size="16px">description</text>
   <rect width="88" height="20" x="1163" y="302" style="fill:none;stroke:black;"/>
   <text width="88" height="20" x="1168" y="316" style="fill:black;" font-family="Arial" font-size="16px">created_at</text>
   <rect width="88" height="20" x="1163" y="322" style="fill:none;stroke:black;"/>
   <text width="88" height="20" x="1168" y="336" style="fill:black;" font-family="Arial" font-size="16px">updated_at</text>
   <rect width="118" height="20" x="941" y="195" style="fill:#007;stroke:black;"/>
   <text width="118" height="20" x="946" y="209" style="fill:#fff;" font-family="Arial" font-size="16px"> alert_user</text>
   <rect width="118" height="20" x="941" y="215" style="fill:#aea;stroke:black;"/>
   <text width="118" height="20" x="946" y="229" style="fill:black;" font-family="Arial" font-size="16px">id</text>
   <rect width="118" height="20" x="941" y="235" style="fill:none;stroke:black;"/>
   <text width="118" height="20" x="946" y="249" style="fill:black;" font-family="Arial" font-size="16px">has_subscrideb</text>
   <rect width="118" height="20" x="941" y="255" style="fill:none;stroke:black;"/>
   <text width="118" height="20" x="946" y="269" style="fill:black;" font-family="Arial" font-size="16px">alert_id</text>
   <rect width="118" height="20" x="941" y="275" style="fill:none;stroke:black;"/>
   <text width="118" height="20" x="946" y="289" style="fill:black;" font-family="Arial" font-size="16px">user_id</text>
   <rect width="88" height="20" x="101" y="303" style="fill:#007;stroke:black;"/>
   <text width="88" height="20" x="106" y="317" style="fill:#fff;" font-family="Arial" font-size="16px"> category</text>
   <rect width="88" height="20" x="101" y="323" style="fill:#aea;stroke:black;"/>
   <text width="88" height="20" x="106" y="337" style="fill:black;" font-family="Arial" font-size="16px">id</text>
   <rect width="88" height="20" x="101" y="343" style="fill:none;stroke:black;"/>
   <text width="88" height="20" x="106" y="357" style="fill:black;" font-family="Arial" font-size="16px">name</text>
   <rect width="88" height="20" x="101" y="363" style="fill:none;stroke:black;"/>
   <text width="88" height="20" x="106" y="377" style="fill:black;" font-family="Arial" font-size="16px">description</text>
   <rect width="88" height="20" x="101" y="383" style="fill:none;stroke:black;"/>
   <text width="88" height="20" x="106" y="397" style="fill:black;" font-family="Arial" font-size="16px">created_at</text>
   <rect width="88" height="20" x="101" y="403" style="fill:none;stroke:black;"/>
   <text width="88" height="20" x="106" y="417" style="fill:black;" font-family="Arial" font-size="16px">updated_at</text>
   <rect width="86" height="20" x="685" y="26" style="fill:#007;stroke:black;"/>
   <text width="86" height="20" x="690" y="40" style="fill:#fff;" font-family="Arial" font-size="16px"> comment</text>
   <rect width="86" height="20" x="685" y="46" style="fill:#aea;stroke:black;"/>
   <text width="86" height="20" x="690" y="60" style="fill:black;" font-family="Arial" font-size="16px">id</text>
   <rect width="86" height="20" x="685" y="66" style="fill:none;stroke:black;"/>
   <text width="86" height="20" x="690" y="80" style="fill:black;" font-family="Arial" font-size="16px">event_id</text>
   <rect width="86" height="20" x="685" y="86" style="fill:none;stroke:black;"/>
   <text width="86" height="20" x="690" y="100" style="fill:black;" font-family="Arial" font-size="16px">user_id</text>
   <rect width="86" height="20" x="685" y="106" style="fill:none;stroke:black;"/>
   <text width="86" height="20" x="690" y="120" style="fill:black;" font-family="Arial" font-size="16px">content</text>
   <rect width="86" height="20" x="685" y="126" style="fill:none;stroke:black;"/>
   <text width="86" height="20" x="690" y="140" style="fill:black;" font-family="Arial" font-size="16px">created_at</text>
   <rect width="86" height="20" x="685" y="146" style="fill:none;stroke:black;"/>
   <text width="86" height="20" x="690" y="160" style="fill:black;" font-family="Arial" font-size="16px">updated_at</text>
   <rect width="92" height="20" x="379" y="11" style="fill:#007;stroke:black;"/>
   <text width="92" height="20" x="384" y="25" style="fill:#fff;" font-family="Arial" font-size="16px"> event</text>
   <rect width="92" height="20" x="379" y="31" style="fill:#aea;stroke:black;"/>
   <text width="92" height="20" x="384" y="45" style="fill:black;" font-family="Arial" font-size="16px">id</text>
   <rect width="92" height="20" x="379" y="51" style="fill:none;stroke:black;"/>
   <text width="92" height="20" x="384" y="65" style="fill:black;" font-family="Arial" font-size="16px">name</text>
   <rect width="92" height="20" x="379" y="71" style="fill:none;stroke:black;"/>
   <text width="92" height="20" x="384" y="85" style="fill:black;" font-family="Arial" font-size="16px">description</text>
   <rect width="92" height="20" x="379" y="91" style="fill:none;stroke:black;"/>
   <text width="92" height="20" x="384" y="105" style="fill:black;" font-family="Arial" font-size="16px">date</text>
   <rect width="92" height="20" x="379" y="111" style="fill:none;stroke:black;"/>
   <text width="92" height="20" x="384" y="125" style="fill:black;" font-family="Arial" font-size="16px">numero</text>
   <rect width="92" height="20" x="379" y="131" style="fill:none;stroke:black;"/>
   <text width="92" height="20" x="384" y="145" style="fill:black;" font-family="Arial" font-size="16px">type_voie</text>
   <rect width="92" height="20" x="379" y="151" style="fill:none;stroke:black;"/>
   <text width="92" height="20" x="384" y="165" style="fill:black;" font-family="Arial" font-size="16px">postal_code</text>
   <rect width="92" height="20" x="379" y="171" style="fill:none;stroke:black;"/>
   <text width="92" height="20" x="384" y="185" style="fill:black;" font-family="Arial" font-size="16px">city</text>
   <rect width="92" height="20" x="379" y="191" style="fill:none;stroke:black;"/>
   <text width="92" height="20" x="384" y="205" style="fill:black;" font-family="Arial" font-size="16px">longitude</text>
   <rect width="92" height="20" x="379" y="211" style="fill:none;stroke:black;"/>
   <text width="92" height="20" x="384" y="225" style="fill:black;" font-family="Arial" font-size="16px">latitude</text>
   <rect width="92" height="20" x="379" y="231" style="fill:none;stroke:black;"/>
   <text width="92" height="20" x="384" y="245" style="fill:black;" font-family="Arial" font-size="16px">created_by</text>
   <rect width="92" height="20" x="379" y="251" style="fill:none;stroke:black;"/>
   <text width="92" height="20" x="384" y="265" style="fill:black;" font-family="Arial" font-size="16px">created_at</text>
   <rect width="92" height="20" x="379" y="271" style="fill:none;stroke:black;"/>
   <text width="92" height="20" x="384" y="285" style="fill:black;" font-family="Arial" font-size="16px">updated_at</text>
   <rect width="117" height="20" x="96" y="128" style="fill:#007;stroke:black;"/>
   <text width="117" height="20" x="101" y="142" style="fill:#fff;" font-family="Arial" font-size="16px"> event_category</text>
   <rect width="117" height="20" x="96" y="148" style="fill:#aea;stroke:black;"/>
   <text width="117" height="20" x="101" y="162" style="fill:black;" font-family="Arial" font-size="16px">event_id</text>
   <rect width="117" height="20" x="96" y="168" style="fill:#aea;stroke:black;"/>
   <text width="117" height="20" x="101" y="182" style="fill:black;" font-family="Arial" font-size="16px">category_id</text>
   <rect width="80" height="20" x="369" y="365" style="fill:#007;stroke:black;"/>
   <text width="80" height="20" x="374" y="379" style="fill:#fff;" font-family="Arial" font-size="16px"> event_user</text>
   <rect width="80" height="20" x="369" y="385" style="fill:#aea;stroke:black;"/>
   <text width="80" height="20" x="374" y="399" style="fill:black;" font-family="Arial" font-size="16px">id</text>
   <rect width="80" height="20" x="369" y="405" style="fill:none;stroke:black;"/>
   <text width="80" height="20" x="374" y="419" style="fill:black;" font-family="Arial" font-size="16px">choice</text>
   <rect width="80" height="20" x="369" y="425" style="fill:none;stroke:black;"/>
   <text width="80" height="20" x="374" y="439" style="fill:black;" font-family="Arial" font-size="16px">event_id</text>
   <rect width="80" height="20" x="369" y="445" style="fill:none;stroke:black;"/>
   <text width="80" height="20" x="374" y="459" style="fill:black;" font-family="Arial" font-size="16px">user_id</text>
   <rect width="88" height="20" x="128" y="552" style="fill:#007;stroke:black;"/>
   <text width="88" height="20" x="133" y="566" style="fill:#fff;" font-family="Arial" font-size="16px"> group</text>
   <rect width="88" height="20" x="128" y="572" style="fill:#aea;stroke:black;"/>
   <text width="88" height="20" x="133" y="586" style="fill:black;" font-family="Arial" font-size="16px">id</text>
   <rect width="88" height="20" x="128" y="592" style="fill:none;stroke:black;"/>
   <text width="88" height="20" x="133" y="606" style="fill:black;" font-family="Arial" font-size="16px">name</text>
   <rect width="88" height="20" x="128" y="612" style="fill:none;stroke:black;"/>
   <text width="88" height="20" x="133" y="626" style="fill:black;" font-family="Arial" font-size="16px">description</text>
   <rect width="88" height="20" x="128" y="632" style="fill:none;stroke:black;"/>
   <text width="88" height="20" x="133" y="646" style="fill:black;" font-family="Arial" font-size="16px">created_by</text>
   <rect width="88" height="20" x="128" y="652" style="fill:none;stroke:black;"/>
   <text width="88" height="20" x="133" y="666" style="fill:black;" font-family="Arial" font-size="16px">created_at</text>
   <rect width="88" height="20" x="128" y="672" style="fill:none;stroke:black;"/>
   <text width="88" height="20" x="133" y="686" style="fill:black;" font-family="Arial" font-size="16px">updated_at</text>
   <rect width="142" height="20" x="1335" y="53" style="fill:#007;stroke:black;"/>
   <text width="142" height="20" x="1340" y="67" style="fill:#fff;" font-family="Arial" font-size="16px"> migration_versions</text>
   <rect width="142" height="20" x="1335" y="73" style="fill:#aea;stroke:black;"/>
   <text width="142" height="20" x="1340" y="87" style="fill:black;" font-family="Arial" font-size="16px">version</text>
   <rect width="142" height="20" x="1335" y="93" style="fill:none;stroke:black;"/>
   <text width="142" height="20" x="1340" y="107" style="fill:black;" font-family="Arial" font-size="16px">executed_at</text>
   <rect width="92" height="20" x="691" y="408" style="fill:#007;stroke:black;"/>
   <text width="92" height="20" x="696" y="422" style="fill:#fff;" font-family="Arial" font-size="16px"> user</text>
   <rect width="92" height="20" x="691" y="428" style="fill:#aea;stroke:black;"/>
   <text width="92" height="20" x="696" y="442" style="fill:black;" font-family="Arial" font-size="16px">id</text>
   <rect width="92" height="20" x="691" y="448" style="fill:none;stroke:black;"/>
   <text width="92" height="20" x="696" y="462" style="fill:black;" font-family="Arial" font-size="16px">firstname</text>
   <rect width="92" height="20" x="691" y="468" style="fill:none;stroke:black;"/>
   <text width="92" height="20" x="696" y="482" style="fill:black;" font-family="Arial" font-size="16px">lastname</text>
   <rect width="92" height="20" x="691" y="488" style="fill:none;stroke:black;"/>
   <text width="92" height="20" x="696" y="502" style="fill:black;" font-family="Arial" font-size="16px">longitude</text>
   <rect width="92" height="20" x="691" y="508" style="fill:none;stroke:black;"/>
   <text width="92" height="20" x="696" y="522" style="fill:black;" font-family="Arial" font-size="16px">latitude</text>
   <rect width="92" height="20" x="691" y="528" style="fill:none;stroke:black;"/>
   <text width="92" height="20" x="696" y="542" style="fill:black;" font-family="Arial" font-size="16px">numero</text>
   <rect width="92" height="20" x="691" y="548" style="fill:none;stroke:black;"/>
   <text width="92" height="20" x="696" y="562" style="fill:black;" font-family="Arial" font-size="16px">type_voie</text>
   <rect width="92" height="20" x="691" y="568" style="fill:none;stroke:black;"/>
   <text width="92" height="20" x="696" y="582" style="fill:black;" font-family="Arial" font-size="16px">postal_code</text>
   <rect width="92" height="20" x="691" y="588" style="fill:none;stroke:black;"/>
   <text width="92" height="20" x="696" y="602" style="fill:black;" font-family="Arial" font-size="16px">city</text>
   <rect width="92" height="20" x="691" y="608" style="fill:none;stroke:black;"/>
   <text width="92" height="20" x="696" y="622" style="fill:black;" font-family="Arial" font-size="16px">email</text>
   <rect width="92" height="20" x="691" y="628" style="fill:none;stroke:black;"/>
   <text width="92" height="20" x="696" y="642" style="fill:black;" font-family="Arial" font-size="16px">password</text>
   <rect width="92" height="20" x="691" y="648" style="fill:none;stroke:black;"/>
   <text width="92" height="20" x="696" y="662" style="fill:black;" font-family="Arial" font-size="16px">description</text>
   <rect width="92" height="20" x="691" y="668" style="fill:none;stroke:black;"/>
   <text width="92" height="20" x="696" y="682" style="fill:black;" font-family="Arial" font-size="16px">image</text>
   <rect width="92" height="20" x="691" y="688" style="fill:none;stroke:black;"/>
   <text width="92" height="20" x="696" y="702" style="fill:black;" font-family="Arial" font-size="16px">created_at</text>
   <rect width="92" height="20" x="691" y="708" style="fill:none;stroke:black;"/>
   <text width="92" height="20" x="696" y="722" style="fill:black;" font-family="Arial" font-size="16px">updated_at</text>
   <rect width="82" height="20" x="333" y="614" style="fill:#007;stroke:black;"/>
   <text width="82" height="20" x="338" y="628" style="fill:#fff;" font-family="Arial" font-size="16px"> user_group</text>
   <rect width="82" height="20" x="333" y="634" style="fill:#aea;stroke:black;"/>
   <text width="82" height="20" x="338" y="648" style="fill:black;" font-family="Arial" font-size="16px">user_id</text>
   <rect width="82" height="20" x="333" y="654" style="fill:#aea;stroke:black;"/>
   <text width="82" height="20" x="338" y="668" style="fill:black;" font-family="Arial" font-size="16px">group_id</text>
</svg>
